<?xml version="1.0" encoding="UTF-8"?>
<svg width="500" height="400" viewBox="0 0 500 400" fill="none" xmlns="http://www.w3.org/2000/svg">
    <!-- Background Elements -->
    <circle cx="250" cy="200" r="150" fill="#E3F2FD" opacity="0.5"/>
    <circle cx="250" cy="200" r="100" fill="#90CAF9" opacity="0.3"/>
    
    <!-- Quiz Card -->
    <rect x="100" y="100" width="300" height="200" rx="20" fill="white" filter="url(#shadow)"/>
    <rect x="120" y="130" width="180" height="20" rx="4" fill="#1976D2" opacity="0.8"/>
    <rect x="120" y="170" width="260" height="12" rx="2" fill="#90CAF9"/>
    <rect x="120" y="190" width="240" height="12" rx="2" fill="#90CAF9"/>
    <rect x="120" y="210" width="220" height="12" rx="2" fill="#90CAF9"/>
    
    <!-- Floating Elements -->
    <circle cx="380" cy="80" r="15" fill="#1976D2" opacity="0.8"/>
    <circle cx="420" cy="120" r="10" fill="#1976D2" opacity="0.6"/>
    <circle cx="80" cy="280" r="20" fill="#1976D2" opacity="0.4"/>
    <circle cx="400" cy="300" r="12" fill="#1976D2" opacity="0.5"/>
    
    <!-- Quiz Icons -->
    <rect x="340" y="240" width="40" height="40" rx="8" fill="#1976D2"/>
    <path d="M350 260 L360 270 L370 250" stroke="white" stroke-width="4" stroke-linecap="round" stroke-linejoin="round"/>
    
    <!-- Decorative Lines -->
    <path d="M50 150 Q 70 170, 90 150" stroke="#1976D2" stroke-width="2" opacity="0.5"/>
    <path d="M410 180 Q 430 200, 450 180" stroke="#1976D2" stroke-width="2" opacity="0.5"/>
    
    <!-- Shadow Filter -->
    <defs>
        <filter id="shadow" x="-4" y="-4" width="316" height="216" filterUnits="userSpaceOnUse">
            <feDropShadow dx="0" dy="4" stdDeviation="8" flood-opacity="0.15"/>
        </filter>
    </defs>
</svg> 